# xmcd CD database file
#
# Track frame offsets:
#	150
#	26975
#	50819
#	77312
#	100324
#	136303
#	156926
#	181007
#	208137
#
# Disc length: 3140 seconds
#
# Revision: 0
# Processed by: cddbd v1.5.2PL0 Copyright (c) Steve Scherf et al.
# Submitted via: CDex 2.23
#
DISCID=760c4209
DTITLE=Antoine Fafard - Sphere
DYEAR=2016
DGENRE=Jazz
TTITLE0=Reminiscence
TTITLE1=Renaissance Man
TTITLE2=Facta Non Verba
TTITLE3=Fur and Axes - Part II
TTITLE4=Still Invictus
TTITLE5=Cherishing
TTITLE6=No-Brainer
TTITLE7=Celestial Roots
TTITLE8=Bubonic Groove
EXTD=YEAR: 2016
EXTT0=
EXTT1=
EXTT2=
EXTT3=
EXTT4=
EXTT5=
EXTT6=
EXTT7=
EXTT8=
PLAYORDER=
